#!OML:ASF H:\Punching\Project 1\Capture day 1\Session 1\female.ASF
:FULLY-SPECIFIED
:DEGREES
2733
root 4.00588 14.5353 -1.36529 16.3949 15.1195 6.88795
lowerback -2.86143 -1.93222 -3.91224
upperback -7.88093 -2.56564 0.780803
thorax -6.40363 -1.00068 3.06649
lowerneck -15.7873 -1.00442 4.58361
upperneck 30.1896 -1.59762 -3.75897
head 12.5548 -0.653835 -2.47073
rclavicle 5.63555e-014 -1.35174e-014
rhumerus 16.9898 8.06553 -56.3871
rradius 132.011
rwrist -14.5339
rhand -30.8266 6.75713
rfingers 7.12502
rthumb -4.11571 -23.1829
lclavicle 5.63555e-014 -1.35174e-014
lhumerus 10.185 -27.622 74.0003
lradius 136.653
lwrist 3.34859
lhand -19.5413 6.72425
lfingers 7.12502
lthumb 6.78264 36.5956
rfemur -53.8079 -10.2165 1.98287
rtibia 49.2762
rfoot -3.93055 -11.9074
rtoes -9.12083
lfemur -3.06598 -9.59461 -20.7782
ltibia 22.1941
lfoot -211.723 206.04
ltoes -8.25919
2734
root 4.01725 14.5228 -1.34918 16.5017 14.5635 6.8347
lowerback -3.05474 -1.88496 -3.99086
upperback -7.95992 -2.49282 0.847544
thorax -6.37902 -0.956898 3.1735
lowerneck -15.7041 -0.915654 4.71594
upperneck 30.3172 -1.44286 -3.95091
head 12.5938 -0.593441 -2.547
rclavicle -2.76311e-014 -1.03368e-014
rhumerus 16.6178 7.94922 -56.1108
rradius 132.058
rwrist -14.6805
rhand -30.8164 6.62921
rfingers 7.12502
rthumb -4.10587 -23.311
lclavicle -2.76311e-014 -1.03368e-014
lhumerus 10.2163 -27.7061 74.2849
lradius 136.583
lwrist 3.35288
lhand -19.2615 7.13531
lfingers 7.12502
lthumb 7.05271 36.9978
rfemur -54.8641 -11.2124 2.80275
rtibia 50.013
rfoot -3.80619 -11.2612
rtoes -9.28248
lfemur -3.03445 -9.40958 -20.9299
ltibia 22.2398
lfoot -211.98 206.291
ltoes -8.26841
2735
root 4.02723 14.5087 -1.32843 16.5942 13.9782 6.77702
lowerback -3.26939 -1.83855 -4.07429
upperback -8.03713 -2.42019 0.911363
thorax -6.34078 -0.913377 3.27969
lowerneck -15.5991 -0.819527 4.86398
upperneck 30.4456 -1.27675 -4.15424
head 12.6297 -0.527597 -2.62871
rclavicle -2.31087e-014 2.38542e-015
rhumerus 16.1998 7.83821 -55.8503
rradius 132.103
rwrist -14.8222
rhand -30.7976 6.45146
rfingers 7.12502
rthumb -4.08773 -23.4891
lclavicle -2.31087e-014 2.38542e-015
lhumerus 10.264 -27.7924 74.585
lradius 136.522
lwrist 3.4059
lhand -18.9783 7.60156
lfingers 7.12502
lthumb 7.32607 37.4547
rfemur -55.9549 -12.1439 3.64976
rtibia 50.8213
rfoot -3.72789 -10.5751
rtoes -9.9084
lfemur -2.95599 -9.26134 -21.0948
ltibia 22.2715
lfoot -212.26 206.619
ltoes -8.24306
2736
root 4.03549 14.4925 -1.30274 16.6612 13.3705 6.73146
lowerback -3.49205 -1.79801 -4.1789
upperback -8.10939 -2.35528 0.968615
thorax -6.2922 -0.87301 3.391
lowerneck -15.4699 -0.714773 5.02901
upperneck 30.5757 -1.09732 -4.36964
head 12.6625 -0.455294 -2.71611
rclavicle 5.397e-014 1.27222e-014
rhumerus 15.7407 7.73982 -55.6092
rradius 132.14
rwrist -14.966
rhand -30.7811 6.23359
rfingers 7.12502
rthumb -4.07172 -23.7072
lclavicle 5.397e-014 1.27222e-014
lhumerus 10.3206 -27.9312 74.89
lradius 136.268
lwrist 3.18457
lhand -19.118 7.57737
lfingers 7.12502
lthumb 7.19124 37.4352
rfemur -57.0427 -12.9877 4.48034
rtibia 51.6851
rfoot -3.76291 -9.85837
rtoes -10.7053
lfemur -2.80289 -9.1543 -21.2899
ltibia 22.2694
lfoot -212.563 207.015
ltoes -8.17402
2737
root 4.04166 14.4741 -1.27192 16.6971 12.7432 6.70802
lowerback -3.71409 -1.7678 -4.31547
upperback -8.17687 -2.30451 1.01715
thorax -6.23763 -0.838332 3.51153
lowerneck -15.3146 -0.601166 5.22114
upperneck 30.7103 -0.903495 -4.60779
head 12.6931 -0.37619 -2.8151
rclavicle 6.36111e-015 3.26007e-014
rhumerus 15.2419 7.66236 -55.3921
rradius 132.166
rwrist -15.1189
rhand -30.7354 5.95125
rfingers 7.12502
rthumb -4.02762 -23.9904
lclavicle 6.36111e-015 3.26007e-014
lhumerus 10.3777 -28.103 75.2074
lradius 135.856
lwrist 2.78281
lhand -19.5961 7.13847
lfingers 7.12502
lthumb 6.72972 37.0115
rfemur -58.1023 -13.7318 5.26705
rtibia 52.5843
rfoot -3.9222 -9.11946
rtoes -11.541
lfemur -2.55905 -9.08265 -21.524
ltibia 22.215
lfoot -212.877 207.473
ltoes -8.07698
2738
root 4.0456 14.4533 -1.23595 16.6998 12.1039 6.72258
lowerback -3.92435 -1.75286 -4.4956
upperback -8.24308 -2.27508 1.05264
thorax -6.18641 -0.812083 3.64372
lowerneck -15.1338 -0.477196 5.43339
upperneck 30.858 -0.693865 -4.85851
head 12.7256 -0.288893 -2.92072
rclavicle 3.27995e-015 -7.95139e-015
rhumerus 14.7007 7.61389 -55.2005
rradius 132.181
rwrist -15.2978
rhand -30.6881 5.66189
rfingers 7.12502
rthumb -3.98193 -24.2806
lclavicle 3.27995e-015 -7.95139e-015
lhumerus 10.4293 -28.303 75.5368
lradius 135.285
lwrist 2.21184
lhand -20.4014 6.27839
lfingers 7.12502
lthumb 5.95225 36.1748
rfemur -59.113 -14.3853 5.984
rtibia 53.4929
rfoot -4.187 -8.37549
rtoes -12.4014
lfemur -2.21419 -9.04884 -21.8101
ltibia 22.0968
lfoot -213.208 207.973
ltoes -7.92368
2739
root 4.04707 14.4299 -1.19458 16.6655 11.4635 6.77846
lowerback -4.11701 -1.75848 -4.72139
upperback -8.30822 -2.27413 1.07603
thorax -6.14112 -0.797609 3.78978
lowerneck -14.9324 -0.342635 5.66213
upperneck 31.0242 -0.467768 -5.11899
head 12.7639 -0.193046 -3.03157
rclavicle 6.1822e-014 2.38542e-014
rhumerus 14.1192 7.59766 -55.0357
rradius 132.186
rwrist -15.5095
rhand -30.6337 5.38178
rfingers 7.12502
rthumb -3.92942 -24.5617
lclavicle 6.1822e-014 2.38542e-014
lhumerus 10.471 -28.512 75.881
lradius 134.623
lwrist 1.57264
lhand -21.3926 5.1823
lfingers 7.12502
lthumb 4.99531 35.1034
rfemur -60.049 -14.9509 6.61639
rtibia 54.3828
rfoot -4.58069 -7.66206
rtoes -13.2446
lfemur -1.764 -9.04363 -22.145
ltibia 21.9096
lfoot -213.543 208.493
ltoes -7.72438
2740
root 4.04597 14.4043 -1.14792 16.6016 10.831 6.87515
lowerback -4.29343 -1.78896 -4.98964
upperback -8.37587 -2.30715 1.08918
thorax -6.104 -0.797629 3.94969
lowerneck -14.7175 -0.197529 5.90311
upperneck 31.2111 -0.225223 -5.38563
head 12.8106 -0.08867 -3.14587
rclavicle 2.52953e-014 1.35174e-014
rhumerus 13.5057 7.60851 -54.8923
rradius 132.18
rwrist -15.7447
rhand -30.5495 5.11966
rfingers 7.12502
rthumb -3.8481 -24.8253
lclavicle 2.52953e-014 1.35174e-014
lhumerus 10.5023 -28.705 76.243
lradius 133.984
lwrist 1.02708
lhand -22.3335 4.16046
lfingers 7.12502
lthumb 4.08674 34.101
rfemur -60.9005 -15.4282 7.15424
rtibia 55.2231
rfoot -5.149 -7.01518
rtoes -13.9706
lfemur -1.22474 -9.05754 -22.5217
ltibia 21.6562
lfoot -213.85 209.031
ltoes -7.56851
2741
root 4.04238 14.3767 -1.09586 16.5076 10.2119 6.98929
lowerback -4.45761 -1.84442 -5.27296
upperback -8.44483 -2.37379 1.09835
thorax -6.07147 -0.813543 4.11427
lowerneck -14.4989 -0.040959 6.14879
upperneck 31.4169 0.0339285 -5.64924
head 12.8674 0.0245158 -3.25888
rclavicle 3.52843e-015 -1.19271e-014
rhumerus 12.8695 7.64121 -54.7682
rradius 132.16
rwrist -15.9729
rhand -30.4403 4.90942
rfingers 7.12502
rthumb -3.74265 -25.0375
lclavicle 3.52843e-015 -1.19271e-014
lhumerus 10.5337 -28.8663 76.6153
lradius 133.472
lwrist 0.70587
lhand -23.0424 3.5037
lfingers 7.12502
lthumb 3.40215 33.4563
rfemur -61.6537 -15.8032 7.61113
rtibia 55.9836
rfoot -5.90476 -6.48294
rtoes -14.4754
lfemur -0.605889 -9.09498 -22.9137
ltibia 21.3463
lfoot -214.157 209.572
ltoes -7.40198
2742
root 4.03635 14.3475 -1.03847 16.3908 9.61499 7.1038
lowerback -4.6174 -1.92593 -5.55213
upperback -8.51526 -2.4748 1.10998
thorax -6.03885 -0.84682 4.27894
lowerneck -14.2872 0.127852 6.4
upperneck 31.6374 0.311226 -5.91349
head 12.9356 0.146614 -3.37208
rclavicle -1.15792e-014 -5.88403e-014
rhumerus 12.2245 7.679 -54.6511
rradius 132.131
rwrist -16.1674
rhand -30.3123 4.76223
rfingers 7.12502
rthumb -3.61902 -25.1868
lclavicle -1.15792e-014 -5.88403e-014
lhumerus 10.5655 -28.9951 76.9987
lradius 133.12
lwrist 0.609324
lhand -23.4917 3.24779
lfingers 7.12502
lthumb 2.96823 33.2069
rfemur -62.3061 -16.0712 7.99994
rtibia 56.6404
rfoot -6.81376 -6.11347
rtoes -14.7617
lfemur 0.0718402 -9.15025 -23.2987
ltibia 20.9944
lfoot -214.452 210.117
ltoes -7.28024
2743
root 4.02782 14.3174 -0.976006 16.2607 9.04333 7.19304
lowerback -4.78399 -2.03281 -5.80214
upperback -8.58533 -2.60831 1.13307
thorax -5.99773 -0.898107 4.43843
lowerneck -14.0993 0.310244 6.65038
upperneck 31.8684 0.60785 -6.1739
head 13.0172 0.277664 -3.48252
rclavicle -4.72114e-015 -7.15625e-015
rhumerus 11.5935 7.70801 -54.5282
rradius 132.083
rwrist -16.2966
rhand -30.1871 4.70026
rfingers 7.12502
rthumb -3.4981 -25.2508
lclavicle -4.72114e-015 -7.15625e-015
lhumerus 10.609 -29.0766 77.3876
lradius 133.005
lwrist 0.81345
lhand -23.5404 3.59744
lfingers 7.12502
lthumb 2.92118 33.5572
rfemur -62.8619 -16.2193 8.34637
rtibia 57.1783
rfoot -7.80984 -5.96219
rtoes -14.8466
lfemur 0.785995 -9.22633 -23.6476
ltibia 20.6156
lfoot -214.756 210.662
ltoes -7.18483
2744
root 4.01685 14.2864 -0.908725 16.1253 8.50232 7.24836
lowerback -4.96661 -2.16178 -6.00988
upperback -8.65766 -2.76957 1.16624
thorax -5.94632 -0.965927 4.58334
lowerneck -13.9213 0.503077 6.90618
upperneck 32.0959 0.918372 -6.43167
head 13.1034 0.415749 -3.59182
rclavicle -1.31198e-014 -1.59028e-015
rhumerus 10.9748 7.70539 -54.3827
rradius 132.027
rwrist -16.355
rhand -30.0631 4.69889
rfingers 7.12502
rthumb -3.37839 -25.2541
lclavicle -1.31198e-014 -1.59028e-015
lhumerus 10.6656 -29.152 77.7689
lradius 132.932
lwrist 0.945871
lhand -23.5828 4.01052
lfingers 7.12502
lthumb 2.88029 33.9708
rfemur -63.3286 -16.2593 8.66844
rtibia 57.5994
rfoot -8.80382 -6.07977
rtoes -14.7338
lfemur 1.52304 -9.32528 -23.9491
ltibia 20.2216
lfoot -215.063 211.209
ltoes -7.1509
2745
root 4.00328 14.2545 -0.836964 15.9931 7.98963 7.26655
lowerback -5.1695 -2.31191 -6.17658
upperback -8.7347 -2.95705 1.21288
thorax -5.88478 -1.0493 4.71746
lowerneck -13.7556 0.707159 7.17113
upperneck 32.3182 1.24509 -6.69394
head 13.1944 0.561336 -3.70308
rclavicle 1.92821e-014 3.02153e-014
rhumerus 10.3775 7.66077 -54.1967
rradius 131.967
rwrist -16.3532
rhand -29.9484 4.71617
rfingers 7.12502
rthumb -3.26765 -25.2385
lclavicle 1.92821e-014 3.02153e-014
lhumerus 10.7321 -29.2168 78.1445
lradius 132.874
lwrist 0.965934
lhand -23.6364 4.38451
lfingers 7.12502
lthumb 2.82847 34.3455
rfemur -63.7224 -16.2014 8.98595
rtibia 57.92
rfoot -9.68343 -6.50314
rtoes -14.4732
lfemur 2.27309 -9.45084 -24.2003
ltibia 19.8184
lfoot -215.39 211.753
ltoes -7.17074
2746
root 3.98703 14.2211 -0.761097 15.8737 7.49912 7.26622
lowerback -5.39534 -2.48226 -6.32374
upperback -8.82053 -3.16945 1.26841
thorax -5.81569 -1.14626 4.84765
lowerneck -13.5858 0.92243 7.44794
upperneck 32.5237 1.58872 -6.96274
head 13.282 0.714866 -3.81679
rclavicle -1.36167e-014 -2.54444e-014
rhumerus 9.80604 7.57217 -53.959
rradius 131.901
rwrist -16.3233
rhand -29.8423 4.71827
rfingers 7.12502
rthumb -3.16517 -25.238
lclavicle -1.36167e-014 -2.54444e-014
lhumerus 10.8055 -29.2702 78.5111
lradius 132.817
lwrist 0.862543
lhand -23.712 4.6462
lfingers 7.12502
lthumb 2.75551 34.6081
rfemur -64.0699 -16.0831 9.30948
rtibia 58.1743
rfoot -10.3699 -7.20979
rtoes -14.0265
lfemur 3.03088 -9.60945 -24.4235
ltibia 19.4071
lfoot -215.739 212.297
ltoes -7.24121
